<?xml version="1.0" encoding="UTF-8" standalone="no"?>
<!-- Created with Inkscape (http://www.inkscape.org/) -->

<svg
   xmlns:dc="http://purl.org/dc/elements/1.1/"
   xmlns:cc="http://creativecommons.org/ns#"
   xmlns:rdf="http://www.w3.org/1999/02/22-rdf-syntax-ns#"
   xmlns:svg="http://www.w3.org/2000/svg"
   xmlns="http://www.w3.org/2000/svg"
   xmlns:sodipodi="http://sodipodi.sourceforge.net/DTD/sodipodi-0.dtd"
   xmlns:inkscape="http://www.inkscape.org/namespaces/inkscape"
   width="156.42857"
   height="142.14285"
   id="svg3037"
   version="1.1"
   inkscape:version="0.48.2 r9819"
   sodipodi:docname="image_nearperfect.svg">
  <defs
     id="defs3039" />
  <sodipodi:namedview
     id="base"
     pagecolor="#ffffff"
     bordercolor="#666666"
     borderopacity="1.0"
     inkscape:pageopacity="0.0"
     inkscape:pageshadow="2"
     inkscape:zoom="2.8"
     inkscape:cx="-26.250711"
     inkscape:cy="82.940699"
     inkscape:document-units="px"
     inkscape:current-layer="layer1"
     showgrid="false"
     inkscape:window-width="1600"
     inkscape:window-height="876"
     inkscape:window-x="0"
     inkscape:window-y="24"
     inkscape:window-maximized="1"
     fit-margin-top="0"
     fit-margin-left="0"
     fit-margin-right="0"
     fit-margin-bottom="0" />
  <metadata
     id="metadata3042">
    <rdf:RDF>
      <cc:Work
         rdf:about="">
        <dc:format>image/svg+xml</dc:format>
        <dc:type
           rdf:resource="http://purl.org/dc/dcmitype/StillImage" />
        <dc:title />
      </cc:Work>
    </rdf:RDF>
  </metadata>
  <g
     inkscape:label="Layer 1"
     inkscape:groupmode="layer"
     id="layer1"
     transform="translate(-364.64286,-324.1479)">
    <path
       style="fill:#000000;stroke:#0000ff;stroke-width:5;stroke-linecap:butt;stroke-linejoin:miter;stroke-miterlimit:4;stroke-opacity:1;stroke-dasharray:none"
       d="M 424.28572,326.6479 367.14286,463.79075 518.57143,402.36218 z"
       id="path2987"
       inkscape:connector-curvature="0" />
    <path
       style="fill:none;stroke:#000000;stroke-width:1px;stroke-linecap:butt;stroke-linejoin:miter;stroke-opacity:1"
       d="m 457.85714,409.1479 c -2.88473,0 -0.70674,-0.14437 -3.21428,0.35714 -0.71008,0.14201 -1.43278,0.21513 -2.14286,0.35714 -0.48131,0.0963 -0.94266,0.28773 -1.42857,0.35714 -0.58926,0.0842 -1.20204,-0.11673 -1.78572,0 -2.16217,0.43244 -0.14797,0.35715 -1.78571,0.35715 -4.21204,0 1.39658,-0.1155 -2.85714,0.35714 -0.82824,0.092 -1.66667,0 -2.5,0 -0.35715,0 -0.72122,-0.07 -1.07143,0 -0.26103,0.0522 -0.45326,0.30494 -0.71429,0.35714 -0.3502,0.07 -0.71428,0 -1.07143,0 -1.19047,0 -2.38095,0 -3.57142,0 -0.83334,0 -1.66667,0 -2.5,0 -0.35715,0 -0.72495,0.0866 -1.07143,0 -0.16333,-0.0408 -0.21706,-0.26375 -0.35715,-0.35714 -0.22149,-0.14766 -0.47619,-0.2381 -0.71428,-0.35714 -0.78378,-0.39189 -1.51792,-0.80363 -2.14286,-1.42857 -0.11905,-0.11905 -0.26375,-0.21706 -0.35714,-0.35715 -0.14766,-0.22149 -0.16891,-0.52605 -0.35714,-0.71428 -0.0842,-0.0842 -0.30391,0.10648 -0.35715,0 -0.35714,-0.71429 0.17857,-0.53572 0,-1.07143 -0.0842,-0.25254 -0.27296,-0.46175 -0.35714,-0.71429 -0.0376,-0.11294 0,-0.23809 0,-0.35714 0,-0.2381 0,-0.47619 0,-0.71429 0,-0.83333 0,-1.66666 0,-2.5 0,-0.71428 0,-1.42857 0,-2.14285 0,-0.2381 0,-0.47619 0,-0.71429 0,-0.11905 -0.0376,-0.2442 0,-0.35714 0.0842,-0.25254 0.20948,-0.4928 0.35714,-0.71429 0.11628,-0.17441 1.25416,-1.31229 1.42857,-1.42857 0.2215,-0.14766 0.52606,-0.16891 0.71429,-0.35714 0.0842,-0.0842 -0.0842,-0.27296 0,-0.35714 0.36137,-0.36138 1.43703,-0.50508 1.78571,-0.71429 0.28874,-0.17324 0.43412,-0.52751 0.71429,-0.71429 0.099,-0.066 0.25066,0.0532 0.35714,0 0.30117,-0.15058 0.43412,-0.5275 0.71429,-0.71428 0.22149,-0.14766 0.49279,-0.20948 0.71428,-0.35714 0.14009,-0.0934 0.20656,-0.28185 0.35715,-0.35715 0.33672,-0.16836 0.73471,-0.18878 1.07143,-0.35714 3.07056,-2.04704 -0.81441,0.40721 2.14285,-1.07143 0.15059,-0.0753 0.19743,-0.3039 0.35715,-0.35714 0.22587,-0.0753 0.48841,0.0753 0.71428,0 0.15972,-0.0532 0.19743,-0.3039 0.35714,-0.35714 0.22588,-0.0753 0.48841,0.0753 0.71429,0 0.15972,-0.0532 0.21706,-0.26376 0.35714,-0.35715 0.22149,-0.14766 0.47619,-0.23809 0.71429,-0.35714 0.23809,-0.11905 0.46713,-0.25828 0.71428,-0.35714 3.5951,-1.43804 -0.75828,0.27885 1.78572,-0.35715 1.0358,-0.25894 0.41795,-0.27863 1.07143,-0.71428 1.55983,-1.03989 -0.11772,0.15829 1.42857,-0.35714 0.50508,-0.16836 0.91666,-0.56803 1.42857,-0.71429 0.3434,-0.0981 0.71788,0.0505 1.07143,0 0.48591,-0.0694 0.9444,-0.27645 1.42857,-0.35714 0.46971,-0.0783 0.95238,0 1.42857,0 0.71429,0 1.42857,0 2.14286,0 0.35714,0 0.71429,0 1.07143,0 0.35714,0 0.72122,-0.07 1.07143,0 0.26103,0.0522 0.46174,0.27296 0.71428,0.35714 0.11294,0.0376 0.25809,-0.066 0.35715,0 0.28016,0.18678 0.43411,0.52751 0.71428,0.71429 0.099,0.066 0.2381,0 0.35714,0 0.11905,0.23809 0.20949,0.49279 0.35715,0.71428 0.27472,0.41209 0.7967,0.65934 1.07143,1.07143 0.29532,0.44298 0.39484,1.00265 0.71428,1.42857 0.20203,0.26938 0.43412,0.52751 0.71429,0.71429 0.099,0.066 0.3039,-0.10648 0.35714,0 0.10648,0.21296 -0.0753,0.48841 0,0.71428 0.0532,0.15972 0.23809,0.2381 0.35714,0.35715 0.47619,0.47619 0.95238,0.95238 1.42857,1.42857 0.11905,0.11904 0.28185,0.20656 0.35715,0.35714 0.10648,0.21296 -0.10648,0.50133 0,0.71429 1.18449,1.18449 -0.16836,-0.33672 0.35714,0.71428 0.0753,0.15059 0.28185,0.20656 0.35714,0.35714 0.0543,0.1087 0,0.91059 0,1.07143 0,0.71429 0,1.42857 0,2.14286 0,2.61905 0,5.2381 0,7.85714 0,1.30953 0,2.61905 0,3.92857 0,0.11905 0,0.2381 0,0.35715 0,0.11904 0.0842,0.27296 0,0.35714 -0.0842,0.0842 -0.27296,-0.0842 -0.35714,0 -0.0842,0.0842 0.0842,0.27296 0,0.35714 -0.0842,0.0842 -0.27296,-0.0842 -0.35714,0 -0.0842,0.0842 0.0842,0.27297 0,0.35715 -0.0842,0.0842 -0.2381,0 -0.35715,0 -0.11904,0 -0.23809,0 -0.35714,0"
       id="path3859"
       inkscape:connector-curvature="0" />
    <path
       sodipodi:type="arc"
       style="fill:#ffffff;fill-opacity:1;stroke:#ffffff;stroke-width:2;stroke-miterlimit:4;stroke-opacity:1;stroke-dasharray:none;stroke-dashoffset:0"
       id="path3065-80"
       sodipodi:cx="426.78571"
       sodipodi:cy="397.00504"
       sodipodi:rx="13.214286"
       sodipodi:ry="12.142858"
       d="m 439.99999,397.00504 c 0,6.70631 -5.91624,12.14285 -13.21428,12.14285 -7.29805,0 -13.21429,-5.43654 -13.21429,-12.14285 0,-6.70632 5.91624,-12.14286 13.21429,-12.14286 7.29804,0 13.21428,5.43654 13.21428,12.14286 z"
       transform="matrix(0.33423915,0,0,0.33423915,342.17197,249.84613)" />
    <path
       style="fill:#ffffff;stroke:#ffffff;stroke-width:1px;stroke-linecap:butt;stroke-linejoin:miter;stroke-opacity:1"
       d="m 420.35714,359.50504 7.85715,22.5 -3.92858,-22.85714 z"
       id="path3933"
       inkscape:connector-curvature="0" />
    <rect
       style="fill:#ffffff;fill-opacity:1;stroke:#ffffff;stroke-width:0.46543002;stroke-miterlimit:4;stroke-opacity:1;stroke-dasharray:none;stroke-dashoffset:0"
       id="rect3935"
       width="7.9788003"
       height="9.3917131"
       x="386.01843"
       y="430.88062" />
  </g>
</svg>
