<?xml version="1.0" encoding="UTF-8" standalone="no"?>
<!-- Created with Inkscape (http://www.inkscape.org/) -->

<svg
   xmlns:dc="http://purl.org/dc/elements/1.1/"
   xmlns:cc="http://creativecommons.org/ns#"
   xmlns:rdf="http://www.w3.org/1999/02/22-rdf-syntax-ns#"
   xmlns:svg="http://www.w3.org/2000/svg"
   xmlns="http://www.w3.org/2000/svg"
   xmlns:sodipodi="http://sodipodi.sourceforge.net/DTD/sodipodi-0.dtd"
   xmlns:inkscape="http://www.inkscape.org/namespaces/inkscape"
   width="542.63904"
   height="411.89771"
   id="svg2"
   version="1.1"
   inkscape:version="0.48.2 r9819"
   sodipodi:docname="New document 1">
  <defs
     id="defs4" />
  <sodipodi:namedview
     id="base"
     pagecolor="#ffffff"
     bordercolor="#666666"
     borderopacity="1.0"
     inkscape:pageopacity="0.0"
     inkscape:pageshadow="2"
     inkscape:zoom="1.4"
     inkscape:cx="345.92035"
     inkscape:cy="186.55065"
     inkscape:document-units="px"
     inkscape:current-layer="layer1"
     showgrid="false"
     fit-margin-top="0"
     fit-margin-left="0"
     fit-margin-right="0"
     fit-margin-bottom="0"
     inkscape:window-width="1600"
     inkscape:window-height="876"
     inkscape:window-x="0"
     inkscape:window-y="24"
     inkscape:window-maximized="1" />
  <metadata
     id="metadata7">
    <rdf:RDF>
      <cc:Work
         rdf:about="">
        <dc:format>image/svg+xml</dc:format>
        <dc:type
           rdf:resource="http://purl.org/dc/dcmitype/StillImage" />
        <dc:title></dc:title>
      </cc:Work>
    </rdf:RDF>
  </metadata>
  <g
     inkscape:label="Layer 1"
     inkscape:groupmode="layer"
     id="layer1"
     transform="translate(-73.734385,-254.61894)">
    <path
       style="fill:#000000;stroke:#000000;stroke-width:1.40765834px;stroke-linecap:butt;stroke-linejoin:miter;stroke-opacity:1"
       d="m 211.25442,460.58001 c -4.71601,11.79004 1.18497,-2.84389 -5.02735,12.06564 -0.69418,1.66605 -1.6051,3.26871 -2.01094,5.02736 -0.6076,2.63292 -0.70707,5.35816 -1.00546,8.04376 -0.37198,3.34768 -0.81864,6.6916 -1.00548,10.0547 -0.14873,2.67712 0,5.36251 0,8.04376 0,5.02736 0,10.05471 0,15.08206 0,4.69219 0,9.38438 0,14.07659 0,1.34062 -0.42394,2.75004 0,4.02187 0.29977,0.89933 1.34063,1.34063 2.01094,2.01094 0.67031,0.67032 1.44216,1.25257 2.01094,2.01094 0.44966,0.59955 0.47555,1.48101 1.00547,2.01094 0.85448,0.85449 2.16193,1.15646 3.01642,2.01094 0.52993,0.52994 0.42025,1.54278 1.00546,2.01095 1.17043,0.93633 2.71164,1.28303 4.02188,2.01094 1.70836,0.94908 3.24824,2.20771 5.02735,3.0164 3.79596,1.72544 8.98808,2.85531 13.07112,4.02189 2.59705,0.74201 4.24427,1.66169 7.03829,2.01094 1.33027,0.16629 2.68589,-0.11135 4.02188,0 2.69278,0.22439 5.36088,0.68353 8.04377,1.00546 16.39552,1.96747 17.01804,2.28176 33.1805,3.01642 3.68293,0.16741 7.3862,-0.30617 11.06019,0 2.36172,0.19682 4.67656,0.80865 7.03829,1.00547 1.66999,0.13922 3.35156,0 5.02735,0 3.68672,0 7.37344,0 11.06017,0 1.67579,0 3.35157,0 5.02735,0 1.34063,0 2.69473,0.18959 4.02188,0 9.94827,-1.42118 12.10043,-2.69285 22.12035,-6.03283 5.02734,-1.67577 10.16178,-3.05923 15.08205,-5.02735 1.81451,-0.72579 3.3117,-2.08059 5.02735,-3.0164 1.97378,-1.07661 4.02188,-2.01094 6.03282,-3.01642 1.34064,-0.67031 2.75084,-1.21654 4.02189,-2.01093 1.42106,-0.88817 2.65823,-2.04239 4.02188,-3.01642 0.98333,-0.70238 2.11321,-1.20811 3.01641,-2.01094 5.40665,-4.8059 10.54419,-10.73467 14.07658,-17.093 0.51471,-0.92647 0.63332,-2.02403 1.00547,-3.0164 2.03596,-5.42924 4.10302,-10.23345 5.02735,-16.08753 0.57736,-3.65662 0.54631,-7.38683 1.00548,-11.06017 0.67031,-4.35704 1.34062,-8.71407 2.01093,-13.07111 0,-1.34062 -0.14804,-2.68946 0,-4.02189 0.18873,-1.69851 0.76379,-3.33554 1.00547,-5.02734 0.0949,-0.66358 0,-1.34062 0,-2.01095 0,-1.00546 0,-2.01094 0,-3.0164 0,-3.17333 0.62103,-4.40632 -2.01094,-7.03829 -1.18496,-1.18497 -2.68125,-2.01094 -4.02188,-3.01642 -1.34062,-1.00547 -2.62755,-2.08685 -4.02188,-3.01641 -1.24713,-0.83142 -2.68125,-1.34063 -4.02189,-2.01094 -0.67031,-0.33515 -1.34062,-0.67031 -2.01094,-1.00546 -0.67031,-0.33517 -1.28388,-0.82371 -2.01093,-1.00548 -0.6503,-0.16257 -1.34737,0.0947 -2.01094,0 -1.6918,-0.24168 -3.35157,-0.67031 -5.02736,-1.00548 -1.67577,-0.33515 -3.37859,-0.5558 -5.02735,-1.00546 -2.04502,-0.55774 -3.96357,-1.55111 -6.03281,-2.01094 -1.96305,-0.43623 -4.04925,0.33059 -6.03283,0 -1.04543,-0.17424 -1.96721,-0.85559 -3.01641,-1.00547 -1.32715,-0.1896 -2.69949,0.22039 -4.02189,0 -0.73923,-0.12317 -1.27169,-0.88227 -2.01093,-1.00547 -1.32239,-0.22039 -2.68126,0 -4.02188,0 -3.01642,0 -6.03282,0 -9.04923,0 -6.03283,0 -12.06565,0 -18.09846,0 -19.4391,0 -38.87819,0 -58.31729,0 -3.35156,0 -6.70313,0 -10.05469,0 -0.33516,0 -0.67031,0 -1.00548,0 -0.33515,0 -0.76848,-0.23699 -1.00546,0 -0.23699,0.237 0,0.67032 0,1.00547 -0.33516,0.33516 -0.61109,0.74255 -1.00548,1.00547 -2.39162,1.59442 -5.41937,1.96666 -8.04376,3.0164 -0.69582,0.27834 -1.29996,0.76849 -2.01094,1.00548 -0.63591,0.21198 -1.41139,-0.29977 -2.01094,0 -0.42395,0.21198 -0.58152,0.7935 -1.00546,1.00548 -0.59955,0.29977 -1.41141,-0.29978 -2.01096,0 -0.42393,0.21196 -0.58151,0.79349 -1.00546,1.00546 -0.59955,0.29977 -1.41139,-0.29978 -2.01094,0 -0.42394,0.21198 -0.58153,0.7935 -1.00547,1.00547 -0.29978,0.14989 -0.7057,-0.14988 -1.00546,0 -0.42395,0.21197 -0.58154,0.7935 -1.00548,1.00547 -0.59955,0.29977 -1.41139,-0.29978 -2.01094,0 -3.33473,3.33473 0.94796,-0.47398 -2.01094,1.00547 -0.42394,0.21197 -0.55581,0.85559 -1.00547,1.00547 -0.004,10e-4 -3.01545,-9.6e-4 -3.01642,0 -0.23698,0.23699 0.23699,0.76848 0,1.00547 -0.23698,0.237 -0.70569,-0.14989 -1.00546,0 -0.98942,0.49471 -3.03248,3.52717 -4.02188,4.02188 -0.29977,0.14989 -0.76848,-0.23699 -1.00547,0 -0.237,0.23699 0.23699,0.76848 0,1.00548 -0.0404,0.0404 -3.65264,0 -4.02188,0 -3.5183,0 -3.61124,0.11894 -8.04377,1.00546 z"
       id="path3001"
       inkscape:connector-curvature="0" />
    <path
       style="fill:#000000;stroke:#000000;stroke-width:1.40765834px;stroke-linecap:butt;stroke-linejoin:miter;stroke-opacity:1"
       d="m 89.592519,640.55919 c 0,-7.59603 0.166287,-0.93398 -1.005462,-12.06564 -0.387542,-3.68159 -0.516216,-7.39073 -1.005476,-11.06019 -0.296284,-2.22215 -2.44492,-8.62597 -3.016415,-10.05469 -0.556658,-1.39167 -1.580237,-2.58623 -2.010938,-4.02189 -0.585812,-1.95269 -0.802619,-4.00425 -1.005463,-6.03281 -0.133446,-1.33399 0.09544,-2.68466 0,-4.02188 -0.239991,-3.35973 -0.713682,-6.69909 -1.005476,-10.05471 -0.378561,-4.35348 -0.555814,-8.7244 -1.005476,-13.07112 -0.670313,-5.3625 -1.340626,-10.725 -2.010939,-16.08752 0,-1.34063 0.12134,-2.68676 0,-4.02188 -0.214555,-2.36018 -0.769651,-4.68014 -1.005462,-7.03829 -0.100084,-1.00048 0,-2.01094 0,-3.01642 0,-2.34608 0,-4.69218 0,-7.03829 0,-9.38438 0,-18.76877 0,-28.15316 0,-9.04923 0,-18.09846 0,-27.14769 0,-2.68126 0,-5.36251 0,-8.04377 0,-0.67032 0,-1.34063 0,-2.01094 0,-0.67031 -0.299775,-1.41139 0,-2.01094 0.423945,-0.84789 1.340626,-1.34063 2.010939,-2.01094 1.005462,-1.00547 2.010938,-2.01094 3.016414,-3.01641 1.005463,-1.00546 1.906054,-2.12813 3.016401,-3.01642 1.170426,-0.93633 2.774748,-1.1795 4.021891,-2.01094 0.39437,-0.2629 0.581518,-0.79349 1.005462,-1.00546 0.948889,-2.49334 2.710911,-0.56848 4.021877,-1.00547 0.71098,-0.237 1.283883,-0.82371 2.010953,-1.00547 0.650296,-0.16258 1.340626,0 2.010938,0 1.005463,0 2.010939,0 3.016403,0 1.00547,0 2.01095,0 3.01641,0 1.00548,0 2.03047,-0.1972 3.01642,0 0.73488,0.14698 1.34062,0.67032 2.01094,1.00547 0.67031,0.33516 1.48101,0.47554 2.01093,1.00547 0.237,0.237 -0.12443,0.69429 0,1.00546 0.55668,1.39167 1.26731,2.72051 2.01095,4.0219 0.59955,1.04919 1.34062,2.01093 2.01093,3.0164 1.00548,1.67578 2.04682,3.33056 3.01642,5.02735 3.51422,6.14988 -2.10911,-3.21274 2.01094,5.02735 0.21198,0.42395 0.79349,0.58153 1.00547,1.00548 2.22099,1.30581 0.37078,3.44061 1.00547,5.02734 0.4488,1.122 1.47052,1.93557 2.01095,3.01641 9.42469,18.84941 -6.15925,-9.52183 5.02734,10.05471 1.57201,2.751 0.6376,1.59398 2.01095,5.02735 0.27832,0.69584 0.72713,1.31511 1.00546,2.01094 0.39363,0.98405 0.61186,2.03235 1.00548,3.01642 0.27832,0.69582 0.72714,1.3151 1.00546,2.01093 0.39362,0.98406 0.74842,1.98819 1.00548,3.0164 0.0812,0.32516 -0.12444,0.69429 0,1.00548 0.55666,1.39167 1.58023,2.58624 2.01094,4.02188 0.58581,1.9527 0.64078,4.02703 1.00547,6.03283 0.3057,1.6814 0.76378,3.33556 1.00546,5.02735 0.0949,0.66357 -0.16257,1.36064 0,2.01094 0.18178,0.72705 0.82371,1.28388 1.00548,2.01094 0.16257,0.65029 -0.16258,1.36064 0,2.01094 0.18176,0.72705 0.76847,1.29997 1.00546,2.01093 0.106,0.31797 0,0.67032 0,1.00548 0.33517,1.34063 0.52026,2.72797 1.00548,4.02188 0.52628,1.40343 1.4022,2.6522 2.01094,4.02187 0.73302,1.64933 1.29997,3.36842 2.01094,5.02736 0.29521,0.68884 0.55581,1.4114 1.00547,2.01094 0.93873,1.25163 3.88011,3.88012 5.02736,5.02735 2.01093,2.01094 3.8121,4.25625 6.03281,6.03283 1.88725,1.50978 4.11718,2.5483 6.03282,4.02188 2.44921,1.88399 4.50687,4.26082 7.03829,6.03281 0.86827,0.6078 2.0962,0.47963 3.01641,1.00548 2.50326,1.43043 4.53504,3.59692 7.03829,5.02735 1.30138,0.74364 2.7205,1.26729 4.02188,2.01094 1.04921,0.59955 1.96007,1.42407 3.01642,2.01094 1.96537,1.09188 4.10493,1.85967 6.03283,3.01641 1.43696,0.86218 2.58489,2.15423 4.02187,3.0164 1.9279,1.15675 4.06746,1.92455 6.03282,3.01642 1.05636,0.58687 1.93557,1.47052 3.01641,2.01094 8.2401,4.12004 -1.12252,-1.50327 5.02736,2.01094 13.11046,7.49169 -0.71746,0.26708 8.04375,4.02189 2.75537,1.18085 5.24585,2.94575 8.04377,4.02187 2.96764,1.1414 6.09707,1.83555 9.04923,3.01642 38.2812,16.40623 4.24407,2.25108 40.21881,16.08752 2.38235,0.91629 4.6168,2.20925 7.03829,3.01642 1.62127,0.54041 3.37861,0.5558 5.02736,1.00546 2.04503,0.55774 3.95426,1.59523 6.03281,2.01094 1.3146,0.26292 2.6995,-0.2204 4.02189,0 2.72617,0.45436 5.32733,1.50162 8.04376,2.01095 2.65584,0.49796 5.36251,0.67031 8.04376,1.00546 2.68126,0.33516 5.35098,0.78107 8.04376,1.00548 1.33599,0.11134 2.68126,0 4.02189,0 3.36471,0 8.99087,-0.25624 12.06563,0 2.03165,0.1693 4.00252,0.82089 6.03283,1.00546 2.33646,0.21241 4.69219,0 7.03829,0 4.02188,0 8.04376,0 12.06565,0 3.68672,0 7.37344,0 11.06017,0 1.0456,0 5.2419,0.19773 6.03281,0 0.72707,-0.18176 1.31512,-0.72714 2.01095,-1.00546 0.98405,-0.39363 1.99733,-0.71432 3.0164,-1.00548 3.33697,-0.95342 4.02484,-0.80555 7.0383,-2.01094 1.39166,-0.55667 2.56776,-1.64741 4.02189,-2.01094 0.65029,-0.16258 1.37501,0.21197 2.01094,0 1.42194,-0.47398 2.6302,-1.45428 4.02187,-2.01093 1.96811,-0.78725 4.02188,-1.34063 6.03282,-2.01096 3.01641,-1.34062 6.00224,-2.75229 9.04924,-4.02187 3.87324,-1.61386 2.58031,-0.52495 7.03829,-2.01094 0.71097,-0.237 1.29996,-0.76849 2.01094,-1.00548 1.31097,-0.43698 2.75172,-0.46111 4.02188,-1.00546 1.11071,-0.47603 1.90569,-1.53493 3.01641,-2.01094 1.27015,-0.54436 2.72798,-0.52026 4.02188,-1.00548 1.40344,-0.52628 2.65736,-1.39069 4.02188,-2.01093 2.32369,-1.05623 4.68584,-2.02591 7.03829,-3.01642 4.0156,-1.69078 8.13767,-3.14192 12.06564,-5.02735 4.46123,-2.14137 8.59895,-4.9199 13.07113,-7.03829 1.91566,-0.90742 4.05439,-1.25 6.03281,-2.01094 2.38235,-0.91629 4.65594,-2.10012 7.03829,-3.0164 1.97844,-0.76094 4.0544,-1.25002 6.03282,-2.01096 2.38235,-0.91627 4.61681,-2.20923 7.03829,-3.0164 1.62128,-0.54042 3.38414,-0.53598 5.02735,-1.00547 5.87223,-0.63383 10.62107,-4.32455 16.08753,-6.03282 2.94934,-0.92166 6.0515,-1.26151 9.04924,-2.01094 2.05642,-0.51412 3.95427,-1.59523 6.03282,-2.01095 0.65729,-0.13147 1.34062,0 2.01093,0 1.00548,-0.33515 1.98821,-0.74841 3.01642,-1.00546 0.32515,-0.0814 0.67031,0 1.00546,0 2.01095,0 4.02883,0.167 6.03283,0 2.03163,-0.1693 4.00118,-0.83616 6.03282,-1.00548 2.00399,-0.16699 4.02189,0 6.03283,0 2.34608,0 4.69219,0 7.03829,0 2.68125,0 5.3625,0 8.04375,0 0.67031,0 1.36064,-0.16257 2.01094,0 1.45412,0.36353 2.63022,1.45428 4.02189,2.01094 0.98405,0.39362 1.98819,0.74842 3.0164,1.00548 1.18878,0.2972 1.17958,-0.6573 2.01095,1.00547 0.14989,0.29978 -0.14988,0.70569 0,1.00547 0.21197,0.42394 0.67032,0.67031 1.00547,1.00547 0.95792,0.95791 1.70658,1.49461 2.01093,3.0164 0.1972,0.98595 -0.14218,2.02106 0,3.01642 0.19544,1.368 0.81006,2.65388 1.00548,4.02187 0.14219,0.99537 0,2.01096 0,3.01642 0,2.01094 0,4.02188 0,6.03283 0,6.70313 0,13.40627 0,20.1094 0,4.35704 0,8.71408 0,13.07112 0,0.39746 0.21471,4.59792 0,5.02734 -0.42394,0.84789 -1.48511,1.22218 -2.01094,2.01095 -0.97684,1.46525 -0.62771,2.09426 -2.01094,3.0164 -0.62356,0.41571 -1.48101,0.47555 -2.01095,1.00548 -0.23698,0.23699 0.23699,0.76847 0,1.00546 -3.92407,3.92409 -0.53998,-0.23274 -3.0164,1.00548 -0.84789,0.42394 -1.16306,1.58699 -2.01094,2.01093 -0.29977,0.14989 -0.7057,-0.14988 -1.00547,0 -0.42395,0.21198 -0.67032,0.67032 -1.00548,1.00548 -1.00546,0.33515 -2.06844,0.53148 -3.0164,1.00546 -5.08486,3.38991 -0.82929,0.93501 -6.03283,3.01642 -1.39165,0.55666 -2.56777,1.64741 -4.02188,2.01094 -0.65029,0.16257 -1.35364,-0.13148 -2.01094,0 -2.07854,0.41571 -3.9344,1.71116 -6.03283,2.01093 -1.32714,0.1896 -2.68944,-0.14804 -4.02187,0 -1.69851,0.18873 -3.33825,0.74561 -5.02736,1.00548 -3.37273,2.3426 -7.45098,0.55432 -11.06016,1.00546 -1.69578,0.21198 -3.32884,0.81675 -5.02736,1.00548 -1.33242,0.14804 -2.68125,0 -4.02187,0 -2.34611,0 -4.69219,0 -7.0383,0 -1.67579,0 -3.35446,-0.0984 -5.02735,0 -4.02886,0.23699 -8.03876,0.73701 -12.06564,1.00548 -6.02874,0.40191 -12.07327,0.55357 -18.09847,1.00546 -7.38312,0.55373 -14.75862,1.22218 -22.12035,2.01094 -2.02707,0.21718 -3.99931,0.86022 -6.03281,1.00547 -2.67444,0.19104 -5.37042,-0.20564 -8.04377,0 -1.70393,0.13106 -3.32031,0.92419 -5.02735,1.00546 -5.35644,0.25507 -10.72697,-0.14487 -16.08753,0 -7.04369,0.19038 -14.07471,0.71214 -21.11487,1.00548 -9.04758,0.37699 -18.09574,0.75403 -27.14769,1.00548 -8.04066,0.22334 -16.08752,0 -24.13129,0 -3.68673,0 -7.3755,-0.12289 -11.06017,0 -6.37326,0.21243 -12.73815,0.63101 -19.10394,1.00546 -0.66916,0.0394 2.68125,0 2.01094,0 -35.85632,0 19.43291,-0.16746 -39.21333,1.00548 -8.04215,0.16083 -16.0892,-0.16414 -24.13129,0 -8.38388,0.1711 -16.75523,0.74353 -25.13676,1.00546 -4.35491,0.13612 -8.71408,0 -13.07112,0 -7.37344,0 -14.74689,0 -22.12034,0 -3.35156,0 -6.71165,-0.23878 -10.0547,0 -2.69526,0.19252 -5.35506,0.7366 -8.04376,1.00547 -2.22348,0.22234 -4.77359,0 -7.03829,0 -5.69766,0 -11.39533,0 -17.093,0 -3.01641,0 -6.03283,0 -9.04923,0 -1.34062,0 -2.70729,0.26293 -4.02189,0 -0.73486,-0.14697 -1.27605,-0.8585 -2.01094,-1.00547 -0.98593,-0.19719 -2.03046,0.1972 -3.0164,0 -0.73488,-0.14698 -1.28388,-0.82371 -2.01095,-1.00546 -0.97544,-0.24387 -2.06253,0.31794 -3.0164,0 -5.69668,-2.84834 1.49886,0.37471 -4.02189,-1.00548 -0.72706,-0.18176 -1.31511,-0.72714 -2.01094,-1.00546 -0.98405,-0.39363 -2.01094,-0.67033 -3.0164,-1.00548 -1.00548,-0.33516 -1.9882,-0.74842 -3.01641,-1.00548 -2.01094,-0.50273 0,1.00548 -3.01642,0 -0.44966,-0.14988 -0.55581,-0.85557 -1.00546,-1.00546 -0.63593,-0.21198 -1.34064,0 -2.01095,0 -0.33515,0 -0.70569,0.14989 -1.00547,0 -0.42394,-0.21198 -0.58153,-0.79349 -1.00547,-1.00547 -0.29978,-0.14989 -0.68032,0.0814 -1.00546,0 -1.02823,-0.25706 -2.03237,-0.61184 -3.01642,-1.00547 -3.46726,-1.38691 -0.58105,-0.89936 -5.02736,-2.01093 -0.32514,-0.0814 -0.7057,0.14987 -1.00546,0 -0.42394,-0.21198 -0.58153,-0.79352 -1.00547,-1.00548 -0.29978,-0.14989 -0.70571,0.14989 -1.00548,0 -0.84788,-0.42395 -1.16305,-1.58699 -2.01094,-2.01094 -0.29977,-0.14989 -0.76847,0.23699 -1.00546,0 -0.23699,-0.23699 0.23699,-0.76848 0,-1.00548 -0.23699,-0.23699 -0.76848,0.237 -1.00548,0 -0.23699,-0.23699 0.237,-0.76846 0,-1.00546 -0.23699,-0.23699 -0.76848,0.237 -1.00546,0 -0.23699,-0.23699 0,-0.67031 0,-1.00547 -0.33516,0 -0.7057,0.14988 -1.00548,0 -1.53995,-0.76998 -0.78629,-1.79177 -2.010934,-3.01642 -0.236994,-0.23699 -0.687515,0.106 -1.005476,0 -0.710966,-0.23699 -1.481012,-0.47553 -2.010939,-1.00546 -0.236993,-0.23699 0.236993,-0.76848 0,-1.00548 -0.236993,-0.23699 -0.768483,0.237 -1.005462,0 -0.236993,-0.23699 0.236979,-0.76847 0,-1.00546 -0.236993,-0.23699 -0.687515,0.106 -1.005476,0 -1.712248,-0.57076 -3.351565,-1.34063 -5.027354,-2.01094 z"
       id="path3003"
       inkscape:connector-curvature="0" />
    <path
       style="fill:#000000;stroke:#000000;stroke-width:1.40765834px;stroke-linecap:butt;stroke-linejoin:miter;stroke-opacity:1"
       d="m 78.532351,384.16427 c -5.147807,0.90413 -1.343033,-3.69154 -2.010939,-5.02735 -0.211979,-0.42394 -0.855589,-0.55581 -1.005476,-1.00548 -0.211965,-0.6359 0.16257,-1.36064 0,-2.01093 -0.181757,-0.72706 -0.823706,-1.28389 -1.005462,-2.01094 -0.162585,-0.6503 0,-1.34063 0,-2.01094 0,-0.67031 0,-1.34063 0,-2.01094 0,-2.3461 0,-4.6922 0,-7.03829 0,-7.70861 0,-15.41721 0,-23.12581 0,-3.01642 0,-6.03283 0,-9.04925 0,-2.01094 -0.133728,-4.02632 0,-6.03281 0.201872,-3.02826 0.04575,-6.17001 1.005462,-9.04923 0.449662,-1.34899 2.143427,-1.89399 3.016415,-3.01642 1.483798,-1.90774 2.63591,-4.05286 4.021877,-6.03281 0.960994,-1.37287 2.086853,-2.62755 3.016414,-4.0219 1.084038,-1.62605 1.880505,-3.43708 3.016415,-5.02734 0.550986,-0.77139 1.340626,-1.34062 2.010939,-2.01095 1.340625,-1.34062 2.582377,-2.78802 4.021877,-4.02187 0.917511,-0.78644 2.010938,-1.34063 3.016414,-2.01094 10.546163,-7.03078 1.412769,-1.30213 12.065643,-7.03829 2.37914,-1.28107 4.57837,-2.90374 7.0383,-4.02188 1.25802,-0.57183 2.71089,-0.56848 4.02187,-1.00548 1.71225,-0.57075 3.37803,-1.27791 5.02736,-2.01094 1.36968,-0.60874 2.59993,-1.53695 4.02187,-2.01094 3.87325,-1.29107 14.59207,-3.38434 18.09846,-4.02187 4.01161,-0.72939 8.01622,-1.53455 12.06565,-2.01095 3.99433,-0.46992 8.05766,0.334 12.06564,0 1.70307,-0.14192 3.32342,-0.8744 5.02736,-1.00547 2.67335,-0.20564 5.3625,0 8.04375,0 5.36252,0 10.72502,0 16.08754,0 19.77425,0 39.54848,0 59.32273,0 7.37346,0 14.7469,0 22.12035,0 2.34611,0 4.69219,0 7.0383,0 0.23892,0 3.79652,-0.11275 4.02187,0 0.92033,0.46017 1.76602,2.28162 2.01094,3.01642 0.106,0.31795 -0.14989,0.70569 0,1.00546 0.54043,1.08086 1.6288,1.87 2.01094,3.01641 0.31796,0.95388 -0.24386,2.04097 0,3.01642 0.43775,1.75099 1.5151,3.29192 2.01095,5.02734 0.18415,0.64452 -0.16258,1.36064 0,2.01095 0.18176,0.72706 0.82371,1.28388 1.00546,2.01094 0.19774,0.79092 0,4.98721 0,6.03282 0,5.36251 0,10.72501 0,16.08752 0,2.3461 0,4.6922 0,7.03829 0,1.98376 0.31797,4.26826 -1.00546,6.03283 -0.44966,0.59955 -1.36831,0.61989 -2.01095,1.00546 -8.4005,5.0403 0.8692,0.53681 -5.02734,2.01094 -1.45412,0.36354 -2.63022,1.45428 -4.02189,2.01095 -0.98405,0.39361 -2.06844,0.53148 -3.0164,1.00546 -0.42395,0.21198 -0.58153,0.7935 -1.00548,1.00548 -6.00104,3.00052 -3.83799,1.32095 -10.0547,3.0164 -2.04502,0.55774 -4.04806,1.26667 -6.03282,2.01095 -0.70172,0.26314 -1.28388,0.82371 -2.01094,1.00547 -0.65031,0.16258 -1.37503,-0.21197 -2.01094,0 -0.44966,0.14988 -0.54565,0.89051 -1.00547,1.00547 -1.0309,0.25773 -4.97588,-0.35232 -6.03282,0 -0.44966,0.14989 -0.54565,0.89051 -1.00547,1.00546 -3.35157,0.8379 -2.23438,-0.55858 -5.02736,0 -1.03927,0.20786 -1.98819,0.74843 -3.01641,1.00548 -0.97544,0.24386 -2.04095,-0.24386 -3.0164,0 -0.72706,0.18176 -1.28389,0.82371 -2.01094,1.00546 -4.02189,1.00548 -0.50275,-0.50273 -3.01642,0 -1.35505,0.27102 -2.65388,0.81005 -4.02187,1.00548 -0.99537,0.1422 -2.01871,-0.12472 -3.01642,0 -1.69578,0.21198 -3.33556,0.76378 -5.02735,1.00548 -0.66357,0.0947 -1.34063,0 -2.01094,0 -1.00548,0 -2.01094,0 -3.01641,0 -0.67032,0 -1.36065,-0.16259 -2.01094,0 -0.72706,0.18175 -1.28389,0.8237 -2.01094,1.00546 -0.6503,0.16258 -1.34975,-0.11022 -2.01094,0 -1.36309,0.22718 -2.65066,0.83406 -4.02189,1.00547 -2.41312,0.30164 -6.78691,-0.37705 -9.04923,0 -0.46753,0.078 -0.5558,0.85558 -1.00546,1.00547 -0.95388,0.31796 -2.06255,-0.31795 -3.01642,0 -0.71098,0.23699 -1.28388,0.8237 -2.01094,1.00547 -1.3006,0.32516 -2.70729,-0.26292 -4.02187,0 -1.03929,0.20786 -1.97098,0.83122 -3.01642,1.00546 -1.23188,0.20533 -4.75657,-0.31906 -6.03283,0 -0.72705,0.18178 -1.28388,0.82372 -2.01094,1.00548 -1.45628,0.36408 -4.578,-0.29096 -6.03281,0 -0.73488,0.14697 -1.27606,0.85849 -2.01094,1.00548 -0.98595,0.19718 -2.01094,0 -3.01642,0 -0.33514,0 -0.7057,-0.14989 -1.00547,0 -0.42393,0.21196 -0.58152,0.79349 -1.00546,1.00546 -0.59955,0.29977 -1.41139,-0.29978 -2.01094,0 -0.42395,0.21198 -0.55582,0.85559 -1.00548,1.00548 -0.63591,0.21196 -1.41139,-0.29978 -2.01094,0 -0.29977,0.14988 0.27887,0.81955 0,1.00546 -0.88185,0.58791 -2.03236,0.61185 -3.01641,1.00547 -2.29837,0.91935 -2.66673,1.60003 -5.02736,3.01642 -0.64262,0.38557 -1.38737,0.58975 -2.01093,1.00546 -0.78876,0.52585 -1.34063,1.34063 -2.01094,2.01094 -1.34063,1.34063 -2.68125,2.68126 -4.02188,4.02189 -1.34062,1.34063 -2.68125,2.68125 -4.02188,4.02188 -0.33516,0.33515 -0.67031,0.67031 -1.00547,1.00546 -0.33517,0.33516 -0.7935,0.58153 -1.00548,1.00548 -0.14987,0.29977 0.14989,0.7057 0,1.00547 -0.21196,0.42395 -0.67031,0.67032 -1.00546,1.00546 -0.33516,0.33517 -0.61109,0.74256 -1.00548,1.00548 -0.62356,0.41571 -1.41139,0.55581 -2.01094,1.00546 -6.31446,4.73586 3.1745,-0.89921 -5.02735,4.02189 -0.64262,0.38558 -1.48101,0.47554 -2.01094,1.00547 -0.23699,0.23699 0.29978,0.85559 0,1.00547 -0.59955,0.29978 -1.37503,-0.21198 -2.01094,0 -0.44966,0.14989 -0.61109,0.74256 -1.00547,1.00546 -0.62357,0.41571 -1.34063,0.67032 -2.01094,1.00548 -0.67031,0.33515 -1.28388,0.82371 -2.01094,1.00546 -0.6503,0.16259 -1.37503,-0.21196 -2.01094,0 -0.44966,0.14989 -0.55581,0.85559 -1.00547,1.00548 -0.63591,0.21198 -1.34063,0 -2.01094,0 -0.33515,0 -0.70569,-0.14989 -1.00546,0 -0.42395,0.21198 -0.55582,0.85559 -1.00548,1.00548 -0.63591,0.21196 -1.36064,-0.16259 -2.01094,0 -5.69668,2.84834 1.49886,-0.37472 -4.02188,1.00546 -0.72705,0.18177 -1.29997,0.76848 -2.01094,1.00547 -0.31796,0.106 -0.68751,-0.10599 -1.00547,0 -0.71098,0.237 -1.29996,0.76847 -2.01094,1.00547 -1.06843,0.35615 -2.95347,-0.35614 -4.02188,0 -0.71098,0.23699 -1.29997,0.76848 -2.01095,1.00547 -0.56727,0.18909 -2.355704,0 -3.016403,0 -2.681251,0 -5.362516,0 -8.043768,0 -1.163922,0 -5.259659,0.22091 -6.032815,0 -1.735432,-0.49583 -3.351578,-1.34062 -5.027353,-2.01094 z"
       id="path3005"
       inkscape:connector-curvature="0" />
    <path
       style="fill:#000000;stroke:#000000;stroke-width:1.40765834px;stroke-linecap:butt;stroke-linejoin:miter;stroke-opacity:1"
       d="m 341.96555,282.61178 c 0,4.02187 0,8.04376 0,12.06564 0,1.34063 0,2.68125 0,4.02188 0,0.67031 -0.13148,1.35364 0,2.01094 0.20785,1.03928 0.79762,1.97714 1.00547,3.01641 0.13148,0.65729 -0.16257,1.36064 0,2.01094 0.18176,0.72705 0.76849,1.29997 1.00547,2.01094 0.43699,1.31098 0.64188,2.6887 1.00547,4.02189 0.64201,2.354 1.23936,4.72352 2.01094,7.03829 0.48432,1.45293 3.18579,8.1338 4.02188,11.06017 0.33516,1.34062 0.67033,2.68125 1.00548,4.02188 0.33516,0.67031 0.76848,1.29997 1.00547,2.01093 1.27557,3.82672 0.55848,3.6492 2.01094,7.0383 0.59043,1.37767 1.53695,2.59993 2.01094,4.02189 0.54043,1.62127 0.59098,3.3694 1.00546,5.02734 0.25707,1.02822 0.61185,2.03236 1.00548,3.01641 0.27833,0.69583 0.8237,1.28388 1.00547,2.01094 0.22441,0.89768 0,3.8635 0,5.02735 0,0.67032 -0.21198,1.37503 0,2.01094 0.14989,0.44966 0.7935,0.58153 1.00547,1.00548 0.40219,0.80438 -0.40219,2.21203 0,3.01641 0.21197,0.42395 0.79349,0.58152 1.00547,1.00546 0.29978,0.59955 -0.47398,1.53697 0,2.01094 0.237,0.237 0.67031,0 1.00546,0 0.33517,0 0.67032,0 1.00548,0 2.01094,0 4.02188,0 6.03282,0 3.01641,0 6.03283,0 9.04923,0 0.33516,0 0.67032,0 1.00547,0 0.33517,0 0.76849,0.237 1.00548,0 0.23698,-0.23699 -0.23699,-0.76847 0,-1.00546 0.47397,-0.47399 1.41139,0.29978 2.01094,0 0.42394,-0.21198 0.58151,-0.7935 1.00546,-1.00548 0.29977,-0.14988 0.7057,0.14989 1.00548,0 0.42394,-0.21196 0.58153,-0.79349 1.00546,-1.00546 0.29977,-0.14989 0.67032,0 1.00547,0 0.67032,-0.33516 1.38738,-0.58976 2.01094,-1.00547 0.39439,-0.26293 0.58153,-0.7935 1.00548,-1.00548 0.29977,-0.14987 0.70569,0.14989 1.00546,0 0.42395,-0.21197 0.58153,-0.7935 1.00548,-1.00546 0.29977,-0.14989 0.7266,0.18591 1.00546,0 0.78877,-0.52585 1.34064,-1.34063 2.01095,-2.01094 1.00546,-0.67031 1.9802,-1.38922 3.0164,-2.01094 1.28528,-0.77117 2.77475,-1.17952 4.02189,-2.01095 1.16015,-0.77344 1.85625,-2.24296 3.0164,-3.0164 0.62357,-0.41571 1.38738,-0.58977 2.01094,-1.00548 0.42619,-0.28412 2.80841,-2.60039 3.01642,-3.01641 0.24655,-0.49308 -0.16591,-3.19229 0,-4.02188 0.54202,-2.71009 1.51654,-5.32457 2.01094,-8.04375 0.42394,-2.33169 0.58153,-4.70661 1.00547,-7.0383 1.25383,-6.89604 0.57516,-1.29513 2.01094,-7.03829 0.16257,-0.65031 0,-1.34062 0,-2.01095 0,-1.67578 0,-3.35156 0,-5.02734 0,-1.37963 -0.52784,-3.25522 1.00548,-4.02189 0.29977,-0.14989 0.68032,0.0812 1.00546,0 10.93537,-3.64512 -2.64965,0.52993 5.02735,-1.00546 1.03928,-0.20786 1.98819,-0.74843 3.01642,-1.00548 0.32514,-0.0812 0.68751,0.106 1.00546,0 0.71098,-0.23699 1.28388,-0.8237 2.01094,-1.00546 0.97545,-0.24386 2.06254,0.31795 3.01641,0 0.71098,-0.23699 1.34063,-0.67031 2.01094,-1.00548 1.00548,0 2.03048,0.19719 3.01642,0 0.73488,-0.14697 1.29997,-0.76848 2.01093,-1.00547 0.58245,-0.19415 3.15057,0 4.02188,0 3.35158,0 6.70314,0 10.05471,0 1.00547,0 2.01094,0 3.01641,0 0.67032,0 1.36065,0.16258 2.01094,0 0.72706,-0.18176 1.29997,-0.76847 2.01094,-1.00547 0.31796,-0.10599 0.67031,0 1.00548,0 1.00546,0 2.01093,0 3.0164,0 3.35158,0 6.70314,0 10.0547,0 2.34611,0 4.69221,0 7.0383,0 1.00547,0 2.01093,0 3.01641,0 0.67031,0 1.36064,-0.16257 2.01094,0 2.32445,0.58111 4.58083,3.57537 6.03281,5.02736 5.30733,5.30732 1.03551,0.54776 6.03283,8.04375 0.26293,0.39438 0.7935,0.58153 1.00547,1.00548 2.49334,0.94889 0.56848,2.71091 1.00547,4.02187 0.237,0.71098 0.82371,1.28389 1.00548,2.01094 0.16257,0.65031 0,1.34063 0,2.01094 0,2.3461 0,4.6922 0,7.03829 0,2.3461 0,4.69221 0,7.03829 0,0.67033 0,1.34064 0,2.01096 0,0.33515 0.10599,0.6875 0,1.00546 -0.237,0.71098 -0.82371,1.28388 -1.00548,2.01094 -0.16257,0.65031 0,1.34062 0,2.01094 -0.33515,0.67032 -0.76848,1.29997 -1.00547,2.01095 -0.106,0.31795 0.14988,0.70569 0,1.00546 -1.11158,2.22316 -0.62403,0.31202 -2.01094,1.00548 -4.18452,2.09226 1.07489,-0.0694 -1.00547,2.01094 -0.52992,0.52992 -1.48101,0.47553 -2.01093,1.00546 -0.52994,0.52994 -0.58977,1.38739 -1.00548,2.01095 -0.92216,1.38322 -1.55115,1.03409 -3.01641,2.01094 -1.47952,0.98635 -2.54236,3.03553 -4.02188,4.02188 -0.27887,0.18591 -0.7057,-0.14989 -1.00548,0 -0.84787,0.42394 -1.22217,1.4851 -2.01094,2.01093 -5.07943,3.3863 -0.0232,0.008 -3.0164,1.00548 -1.42196,0.47399 -2.59993,1.53695 -4.02189,2.01094 -0.31795,0.106 -0.70569,-0.14989 -1.00546,0 -0.42394,0.21196 -0.55581,0.85559 -1.00548,1.00546 -0.63591,0.21198 -1.35364,-0.13147 -2.01094,0 -3.09375,0.61877 -5.95547,2.39767 -9.04923,3.01642 -1.31459,0.26292 -2.75005,-0.42395 -4.02187,0 -0.44966,0.14988 -0.55582,0.85559 -1.00548,1.00547 -0.45805,0.15268 -6.35736,0 -7.03829,0 -0.33515,0 -0.76848,0.237 -1.00548,0 -0.23698,-0.23699 0.31797,-1.11146 0,-1.00547 -1.77525,0.59175 -5.01455,3.75453 -6.03281,5.02735 -0.46818,0.58521 -0.61989,1.36831 -1.00548,2.01094 -0.62172,1.03622 -1.25604,2.07279 -2.01094,3.01641 -0.59218,0.74023 -1.41875,1.27071 -2.01094,2.01094 -1.61776,2.02222 -1.97215,2.93887 -3.01641,5.02735 -0.67031,1.34063 -1.34063,2.68126 -2.01094,4.02188 -0.33515,0.67031 -0.76847,1.29997 -1.00546,2.01094 -0.87399,2.62195 -1.25168,5.38633 -2.01094,8.04377 -0.29117,1.01907 -0.79762,1.97712 -1.00548,3.01641 -0.15359,0.76794 0.25504,3.25679 0,4.02188 -0.23699,0.71098 -0.8237,1.28388 -1.00547,2.01094 -0.16257,0.65029 0,1.34062 0,2.01094 0,1.67579 0,3.35156 0,5.02735 0,0.45282 -0.153,2.71042 0,3.01641 0.46018,0.92033 2.28163,1.76601 3.01641,2.01094 0.96739,0.32247 2.9698,-0.26302 4.02188,0 1.02822,0.25706 1.97097,0.83124 3.01641,1.00547 0.9918,0.1653 2.01094,0 3.01642,0 2.3461,0 4.69219,0 7.03829,0 1.16802,0 4.11584,0.22788 5.02735,0 0.72706,-0.18176 1.28389,-0.82371 2.01094,-1.00547 6.7812,-1.6953 -5.62466,3.65752 6.03282,-1.00547 2.0875,-0.835 3.99146,-2.07424 6.03283,-3.0164 2.31754,-1.06964 4.75528,-1.87492 7.03829,-3.01642 1.08084,-0.54043 2.01094,-1.34062 3.0164,-2.01094 2.01095,-1.34062 3.98335,-2.74095 6.03283,-4.02189 1.65722,-1.03575 3.46392,-1.84383 5.02735,-3.0164 1.13756,-0.85317 1.85151,-2.20099 3.0164,-3.01641 2.21367,-1.54957 4.70427,-2.66037 7.0383,-4.02188 1.68807,-0.98471 3.31169,-2.0806 5.02735,-3.01642 1.97378,-1.0766 4.12627,-1.82481 6.03283,-3.01641 0.80387,-0.50242 1.34062,-1.34063 2.01094,-2.01094 0.33515,-0.33515 0.58153,-0.7935 1.00546,-1.00546 2.47644,-1.23822 -0.90767,2.91861 3.01641,-1.00548 0.237,-0.23699 -0.23699,-0.76848 0,-1.00547 0.036,-0.036 3.84777,-1.90647 4.02188,-2.01094 1.03622,-0.62172 2.04968,-1.28588 3.01642,-2.01094 0.75837,-0.56878 1.16305,-1.58699 2.01093,-2.01094 0.29978,-0.14989 0.70571,0.14989 1.00548,0 0.42394,-0.21196 0.58153,-0.7935 1.00546,-1.00547 0.29978,-0.14988 0.7057,0.14988 1.00548,0 0.42394,-0.21197 0.58153,-0.7935 1.00548,-1.00547 0.29977,-0.14988 0.68032,0.0812 1.00546,0 1.02821,-0.25705 1.9882,-0.74842 3.01641,-1.00547 0.32516,-0.0812 0.68752,0.10599 1.00546,0 0.71098,-0.237 1.29998,-0.76847 2.01096,-1.00547 0.31794,-0.10599 0.67031,0 1.00546,0 0.67031,0 1.34062,0 2.01094,0 1.67579,0 3.35158,0 5.02735,0 0.59864,0 5.65563,-0.18859 6.03283,0 0.29978,0.14989 -0.14989,0.70569 0,1.00547 0.21197,0.42394 0.58152,0.79349 1.00546,1.00547 0.29978,0.14989 0.76849,-0.23699 1.00548,0 0.73972,0.73973 1.81461,4.43836 2.01094,5.02736 0.33515,1.00546 0.61185,2.03235 1.00546,3.0164 0.27834,0.69583 0.8585,1.27607 1.00548,2.01095 0.32864,1.64323 0,3.35156 0,5.02734 0,3.35158 0,6.70314 0,10.05471 0,3.01641 0,6.03282 0,9.04923 0,1.00547 0.1422,2.02104 0,3.01641 -0.19543,1.368 -0.56849,2.71091 -1.00548,4.02188 -0.73259,2.1978 -2.45207,3.45754 -4.02188,5.02735 -1.67577,1.67579 -3.35156,3.35156 -5.02735,5.02735 -1.00546,1.00548 -1.90605,2.12813 -3.0164,3.01642 -0.94363,0.7549 -2.08808,1.23732 -3.01642,2.01094 -1.09237,0.9103 -2.01093,2.01094 -3.01641,3.01641 -0.33515,0.33515 -0.61109,0.74254 -1.00546,1.00546 -1.24715,0.83142 -2.77475,1.17952 -4.02189,2.01094 -1.22896,0.81932 -0.78197,1.19164 -2.01094,2.01094 -0.62357,0.41572 -1.34063,0.67033 -2.01094,1.00548 -0.67031,0.33516 -1.31511,0.72714 -2.01094,1.00547 -0.98405,0.39361 -2.13456,0.41757 -3.01641,1.00547 -0.27888,0.1859 0.23699,0.76848 0,1.00547 -0.237,0.237 -0.70569,-0.14989 -1.00547,0 -0.42394,0.21197 -0.55581,0.85558 -1.00547,1.00546 -0.63591,0.21198 -1.37503,-0.21196 -2.01094,0 -0.44966,0.14989 -0.58153,0.7935 -1.00548,1.00548 -1.68954,0.84476 -5.42752,1.5277 -7.03829,2.01094 -2.03032,0.60909 -4.04806,1.26665 -6.03281,2.01094 -3.06429,1.14911 -1.15093,1.23565 -5.02736,2.01094 -0.65729,0.13147 -1.36064,-0.16257 -2.01094,0 -1.45411,0.36352 -2.56776,1.64741 -4.02187,2.01093 -0.65031,0.16259 -1.37503,-0.21196 -2.01096,0 -0.89931,0.29978 -1.16305,1.58701 -2.01093,2.01096 -0.63432,0.31716 -4.39302,-0.31716 -5.02736,0 -2.9589,1.47945 1.56079,1.00546 -3.0164,1.00546 -1.00547,0 -2.17981,-0.55773 -3.01641,0 -0.55773,0.37182 0.16257,1.36064 0,2.01094 -0.18176,0.72705 -0.82371,1.28388 -1.00548,2.01094 -0.24385,0.97545 0,2.01095 0,3.01641 0,10.38986 0,20.77973 0,31.16958 0,1.34063 0,2.68125 0,4.02188 0,0.33516 -0.23698,0.76848 0,1.00548 0.23699,0.23699 0.7057,-0.14989 1.00548,0 2.14075,1.07037 -0.12979,0.94055 2.01094,2.01093 0.29977,0.14989 0.7057,-0.14988 1.00547,0 4.60164,2.30082 -4.26663,-0.41673 3.0164,2.01094 0.31796,0.106 0.7057,-0.14988 1.00548,0 0.42394,0.21198 0.58153,0.7935 1.00547,1.00548 0.59954,0.29977 1.41139,-0.29978 2.01094,0 0.42395,0.21196 0.58152,0.7935 1.00547,1.00546 0.29977,0.14989 0.68751,-0.106 1.00547,0 0.71098,0.23699 1.28388,0.82371 2.01094,1.00548 1.30061,0.32514 2.75006,-0.42395 4.02188,0 0.44966,0.14988 0.55581,0.85557 1.00547,1.00546 0.90228,0.63592 2.06255,-0.31795 3.01642,0 0.71096,0.23699 1.29996,0.76848 2.01094,1.00548 0.96738,0.32246 2.96978,-0.26302 4.02187,0 1.02821,0.25705 1.99733,0.7143 3.01642,1.00546 1.32872,0.37964 2.68125,0.67033 4.02188,1.00547 1.34062,0.33517 2.65879,0.7783 4.02187,1.00548 0.66119,0.11022 1.36064,-0.16258 2.01094,0 0.72707,0.18176 1.29997,0.76847 2.01095,1.00546 0.31795,0.106 0.6875,-0.10599 1.00547,0 0.71098,0.237 1.28388,0.82371 2.01093,1.00548 0.65031,0.16257 1.34975,-0.11022 2.01094,0 10.89256,2.72313 -2.76377,-0.34548 8.04377,1.00546 1.37121,0.17141 2.66684,0.73446 4.02188,1.00548 0.32864,0.0657 0.68751,-0.106 1.00547,0 0.71098,0.23699 1.28389,0.8237 2.01094,1.00546 1.2801,0.32003 3.72154,-0.32645 5.02736,0 1.02821,0.25707 1.97712,0.79762 3.01641,1.00548 1.31458,0.26292 2.68125,0 4.02188,0 3.01641,0 6.03281,0 9.04923,0 2.68125,0 5.3625,0 8.04377,0 0.52577,0 3.75749,0.13218 4.02187,0 2.10911,-1.05455 2.27621,-6.26729 3.01642,-8.04377 1.15297,-2.76713 2.90854,-5.26044 4.02187,-8.04376 0.90618,-2.26545 1.19029,-4.74045 2.01094,-7.03829 0.85849,-2.40377 2.06844,-4.66837 3.01642,-7.03829 0.39362,-0.98405 0.53149,-2.06844 1.00546,-3.01641 0.54043,-1.08085 1.2859,-2.04967 2.01094,-3.01642 0.2844,-0.37918 0.85559,-0.5558 1.00547,-1.00546 0.21198,-0.63591 -0.21196,-1.37503 0,-2.01094 0.14989,-0.44966 0.89052,-0.54564 1.00548,-1.00548 0.24386,-0.97545 -0.12472,-2.0187 0,-3.01641 0.21197,-1.69576 0.6857,-3.34855 1.00546,-5.02734 3.42082,-17.95927 1.96639,-12.46833 6.03283,-28.15317 1.30576,-5.03651 2.4443,-10.12395 4.02188,-15.08206 0.77392,-2.43232 2.20925,-4.61679 3.01641,-7.03829 1.00547,-3.01641 2.01094,-8.5465 3.01641,-12.06564 0.29117,-1.01908 0.74842,-1.98819 1.00547,-3.01642 0.27,-1.08002 -0.11641,-3.86365 0,-5.02734 2.14092,-21.4092 -0.0957,10.62805 2.01094,-24.13129 0.34527,-5.69706 0.734,-11.39194 1.00548,-17.093 0.11162,-2.34344 0,-4.69219 0,-7.03829 0,-3.68672 0,-7.37344 0,-11.06017 0,-21.78518 0,-43.57037 0,-65.35556 0,-1.00548 0,-2.01094 0,-3.01641 0,-2.34611 0,-4.69219 0,-7.0383 0,-0.67031 0,-1.34062 0,-2.01094 0,-0.67031 -0.21198,-1.37502 0,-2.01093 0.14988,-0.44967 0.67031,-0.67032 1.00546,-1.00548 0.33516,-0.33515 0.53149,-1.00546 1.00547,-1.00546 0.33515,0 0.237,0.76847 0,1.00546 -0.23699,0.23699 -0.67031,0 -1.00547,0 -0.33515,0 -0.67031,0 -1.00546,0 -2.34611,0 -4.69221,0 -7.0383,0 -2.68126,0 -5.36251,0 -8.04376,0 -0.67032,0 -1.36065,0.16258 -2.01094,0 -1.45411,-0.36353 -2.63023,-1.45427 -4.02188,-2.01094 -0.98406,-0.39362 -1.99734,-0.7143 -3.01641,-1.00547 -1.32872,-0.37964 -2.69316,-0.62584 -4.02188,-1.00547 -1.01909,-0.29116 -1.97714,-0.79762 -3.01642,-1.00547 -0.65729,-0.13148 -1.36064,0.16258 -2.01093,0 -0.72706,-0.18176 -1.29998,-0.76847 -2.01094,-1.00547 -2.99312,-0.9977 2.06302,2.38082 -3.01642,-1.00547 -0.39438,-0.26292 -0.56538,-0.82944 -1.00547,-1.00546 -1.28304,-0.51324 -2.69316,-0.62585 -4.02188,-1.00548 -3.34706,-0.95631 -3.26637,-1.38229 -7.03829,-2.01094 -0.66119,-0.11022 -1.36064,0.16257 -2.01094,0 -0.72706,-0.18177 -1.28388,-0.8237 -2.01094,-1.00547 -0.6503,-0.16258 -1.35365,0.13147 -2.01094,0 -1.03929,-0.20786 -1.97714,-0.79761 -3.01641,-1.00547 -1.3146,-0.26292 -2.72129,0.32514 -4.02188,0 -0.72706,-0.18177 -1.26905,-0.89949 -2.01095,-1.00547 -1.65894,-0.237 -3.35157,0 -5.02734,0 -3.01642,0 -6.03283,0 -9.04925,0 -0.67031,0 -1.35363,0.13147 -2.01093,0 -1.03928,-0.20786 -1.97713,-0.79761 -3.0164,-1.00547 -0.65731,-0.13147 -1.34063,0 -2.01096,0 -2.01094,0 -4.02187,0 -6.03281,0 -16.42269,0 -32.84536,0 -49.26805,0 -5.3625,0 -10.72501,0 -16.08752,0 -2.68125,0 -5.36772,-0.16725 -8.04377,0 -2.69684,0.16856 -5.3463,0.8468 -8.04375,1.00547 -3.01641,0 -6.03283,0 -9.04923,0 0,-0.33515 0.31795,-0.89948 0,-1.00547 -0.95387,-0.31796 -2.01095,0 -3.01641,0 -0.56245,0 -8.87906,-0.19594 -10.05471,0 -1.04544,0.17424 -1.9672,0.85558 -3.01642,1.00547 -2.65429,0.37919 -5.3832,-0.33256 -8.04375,0 -1.37121,0.17141 -2.6588,0.77829 -4.02188,1.00547 -0.6612,0.11022 -1.36064,-0.16258 -2.01095,0 -0.72705,0.18176 -1.28388,0.82371 -2.01094,1.00547 -0.65029,0.16258 -1.36064,-0.16258 -2.01094,0 -4.66795,2.33398 0.57875,0.0853 -4.02187,1.00547 -1.03928,0.20786 -2.01094,0.67031 -3.01642,1.00546 -2.01094,0.67033 -3.97639,1.49684 -6.03281,2.01096 -0.32516,0.0812 -0.67032,0 -1.00548,0 -0.67031,0.33515 -1.29996,0.76847 -2.01094,1.00546 -0.31796,0.106 -0.76848,-0.23699 -1.00547,0 -0.23698,0.23699 0.23699,0.76848 0,1.00547 -0.23698,0.237 -0.76847,-0.23699 -1.00547,0 -0.47398,0.47399 0.47399,1.53696 0,2.01094 -0.23699,0.237 -0.7057,-0.14988 -1.00547,0 -0.84789,0.42395 -1.16305,1.587 -2.01094,2.01094 -0.29978,0.14989 -0.68032,-0.0812 -1.00546,0 -1.02823,0.25705 -2.06846,0.53149 -3.01642,1.00548 -1.08085,0.54041 -2.01094,1.34062 -3.01641,2.01094 -1.00547,0.67031 -2.04967,1.28588 -3.01642,2.01093 -0.37918,0.28439 -0.58152,0.7935 -1.00546,1.00547 -0.29977,0.14988 -0.7057,-0.14988 -1.00548,0 -0.42394,0.21198 -0.58151,0.79351 -1.00546,1.00547 -0.29977,0.14989 -0.76848,-0.23699 -1.00547,0 -0.237,0.237 0.23699,0.76849 0,1.00548 -0.237,0.23698 -0.70571,-0.14989 -1.00547,0 -0.42394,0.21196 -0.58153,0.7935 -1.00547,1.00546 -0.29978,0.14989 -0.7057,-0.14989 -1.00548,0 -4.18452,2.09226 1.07489,-0.0694 -1.00546,2.01094 -0.23699,0.23699 -0.76848,-0.23699 -1.00548,0 -0.23699,0.23699 0.237,0.76848 0,1.00548 -0.23699,0.23699 -0.70569,-0.14989 -1.00546,0 -0.42394,0.21196 -0.58153,0.79349 -1.00548,1.00546 -0.29977,0.14989 -0.7057,-0.14987 -1.00546,0 -0.84789,0.42394 -1.16306,1.58701 -2.01095,2.01095 -0.29976,0.14989 -0.76847,-0.23699 -1.00546,0 -0.237,0.23698 0.23699,0.76847 0,1.00546 -0.237,0.237 -0.67032,0 -1.00548,0 -0.33515,0 -0.67031,0 -1.00546,0 -2.81035,0 -0.69429,0.12444 -6.03283,-2.01093 z"
       id="path3007"
       inkscape:connector-curvature="0" />
  </g>
</svg>
